<mxfile host="Electron" agent="Mozilla/5.0 (Windows NT 10.0; Win64; x64) AppleWebKit/537.36 (KHTML, like Gecko) draw.io/26.1.1 Chrome/132.0.6834.210 Electron/34.3.3 Safari/537.36" version="26.1.1">
  <diagram name="Page-1" id="SVADF7yYwRsvm6u2VxT8">
    <mxGraphModel dx="1900" dy="669" grid="1" gridSize="10" guides="1" tooltips="1" connect="1" arrows="1" fold="1" page="1" pageScale="1" pageWidth="850" pageHeight="1100" math="0" shadow="0">
      <root>
        <mxCell id="0" />
        <mxCell id="1" parent="0" />
        <mxCell id="8eYh4b06xCEiU3wfwkCu-1" value="crm_sales_details" style="swimlane;fontStyle=0;childLayout=stackLayout;horizontal=1;startSize=30;horizontalStack=0;resizeParent=1;resizeParentMax=0;resizeLast=0;collapsible=1;marginBottom=0;whiteSpace=wrap;html=1;fillColor=#dae8fc;strokeColor=#6c8ebf;" parent="1" vertex="1">
          <mxGeometry x="-150" y="230" width="170" height="90" as="geometry" />
        </mxCell>
        <mxCell id="8eYh4b06xCEiU3wfwkCu-3" value="cst_id" style="text;strokeColor=#6c8ebf;fillColor=none;align=left;verticalAlign=middle;spacingLeft=4;spacingRight=4;overflow=hidden;points=[[0,0.5],[1,0.5]];portConstraint=eastwest;rotatable=0;whiteSpace=wrap;html=1;" parent="8eYh4b06xCEiU3wfwkCu-1" vertex="1">
          <mxGeometry y="30" width="170" height="30" as="geometry" />
        </mxCell>
        <mxCell id="8eYh4b06xCEiU3wfwkCu-4" value="prd_key" style="text;strokeColor=#6c8ebf;fillColor=none;align=left;verticalAlign=middle;spacingLeft=4;spacingRight=4;overflow=hidden;points=[[0,0.5],[1,0.5]];portConstraint=eastwest;rotatable=0;whiteSpace=wrap;html=1;" parent="8eYh4b06xCEiU3wfwkCu-1" vertex="1">
          <mxGeometry y="60" width="170" height="30" as="geometry" />
        </mxCell>
        <mxCell id="8eYh4b06xCEiU3wfwkCu-6" value="crm_cust_info" style="swimlane;fontStyle=0;childLayout=stackLayout;horizontal=1;startSize=30;horizontalStack=0;resizeParent=1;resizeParentMax=0;resizeLast=0;collapsible=1;marginBottom=0;whiteSpace=wrap;html=1;fillColor=#dae8fc;strokeColor=#6c8ebf;" parent="1" vertex="1">
          <mxGeometry x="160" y="150" width="190" height="90" as="geometry" />
        </mxCell>
        <mxCell id="8eYh4b06xCEiU3wfwkCu-8" value="cst_id" style="text;strokeColor=#6c8ebf;fillColor=none;align=left;verticalAlign=middle;spacingLeft=4;spacingRight=4;overflow=hidden;points=[[0,0.5],[1,0.5]];portConstraint=eastwest;rotatable=0;whiteSpace=wrap;html=1;" parent="8eYh4b06xCEiU3wfwkCu-6" vertex="1">
          <mxGeometry y="30" width="190" height="30" as="geometry" />
        </mxCell>
        <mxCell id="8eYh4b06xCEiU3wfwkCu-30" value="cst_key" style="text;strokeColor=#6c8ebf;fillColor=none;align=left;verticalAlign=middle;spacingLeft=4;spacingRight=4;overflow=hidden;points=[[0,0.5],[1,0.5]];portConstraint=eastwest;rotatable=0;whiteSpace=wrap;html=1;" parent="8eYh4b06xCEiU3wfwkCu-6" vertex="1">
          <mxGeometry y="60" width="190" height="30" as="geometry" />
        </mxCell>
        <mxCell id="8eYh4b06xCEiU3wfwkCu-9" value="crm_prd_info" style="swimlane;fontStyle=0;childLayout=stackLayout;horizontal=1;startSize=30;horizontalStack=0;resizeParent=1;resizeParentMax=0;resizeLast=0;collapsible=1;marginBottom=0;whiteSpace=wrap;html=1;fillColor=#dae8fc;strokeColor=#6c8ebf;" parent="1" vertex="1">
          <mxGeometry x="160" y="330" width="190" height="60" as="geometry" />
        </mxCell>
        <mxCell id="8eYh4b06xCEiU3wfwkCu-10" value="prd_key" style="text;strokeColor=#6c8ebf;fillColor=none;align=left;verticalAlign=middle;spacingLeft=4;spacingRight=4;overflow=hidden;points=[[0,0.5],[1,0.5]];portConstraint=eastwest;rotatable=0;whiteSpace=wrap;html=1;" parent="8eYh4b06xCEiU3wfwkCu-9" vertex="1">
          <mxGeometry y="30" width="190" height="30" as="geometry" />
        </mxCell>
        <mxCell id="8eYh4b06xCEiU3wfwkCu-17" value="&lt;b&gt;&lt;span style=&quot;white-space: pre;&quot;&gt;&#x9;&lt;/span&gt;&lt;span style=&quot;white-space: pre;&quot;&gt;&#x9;&lt;/span&gt;&lt;span style=&quot;white-space: pre;&quot;&gt;&#x9;&lt;/span&gt;&lt;span style=&quot;white-space: pre;&quot;&gt;&#x9;&lt;/span&gt;&lt;span style=&quot;white-space: pre;&quot;&gt;&#x9;&lt;/span&gt;&lt;span style=&quot;white-space: pre;&quot;&gt;&#x9;&lt;/span&gt;&lt;span style=&quot;white-space: pre;&quot;&gt;&#x9;&lt;/span&gt;&lt;span style=&quot;white-space: pre;&quot;&gt;&#x9;&lt;/span&gt;&lt;span style=&quot;white-space: pre;&quot;&gt;&#x9;&lt;/span&gt;&lt;font style=&quot;font-size: 21px;&quot;&gt;INTEGRATION MODEL&lt;/font&gt;(how tables are related)&lt;/b&gt;" style="text;html=1;align=center;verticalAlign=middle;resizable=0;points=[];autosize=1;strokeColor=none;fillColor=none;" parent="1" vertex="1">
          <mxGeometry x="-240" y="15" width="620" height="40" as="geometry" />
        </mxCell>
        <mxCell id="8eYh4b06xCEiU3wfwkCu-18" value="erp_cust_az12" style="swimlane;fontStyle=0;childLayout=stackLayout;horizontal=1;startSize=30;horizontalStack=0;resizeParent=1;resizeParentMax=0;resizeLast=0;collapsible=1;marginBottom=0;whiteSpace=wrap;html=1;fillColor=#ffe6cc;strokeColor=#d79b00;" parent="1" vertex="1">
          <mxGeometry x="570" y="122" width="190" height="60" as="geometry" />
        </mxCell>
        <mxCell id="8eYh4b06xCEiU3wfwkCu-19" value="cid" style="text;strokeColor=#6c8ebf;fillColor=none;align=left;verticalAlign=middle;spacingLeft=4;spacingRight=4;overflow=hidden;points=[[0,0.5],[1,0.5]];portConstraint=eastwest;rotatable=0;whiteSpace=wrap;html=1;" parent="8eYh4b06xCEiU3wfwkCu-18" vertex="1">
          <mxGeometry y="30" width="190" height="30" as="geometry" />
        </mxCell>
        <mxCell id="8eYh4b06xCEiU3wfwkCu-21" value="erp_loc_a101" style="swimlane;fontStyle=0;childLayout=stackLayout;horizontal=1;startSize=30;horizontalStack=0;resizeParent=1;resizeParentMax=0;resizeLast=0;collapsible=1;marginBottom=0;whiteSpace=wrap;html=1;fillColor=#ffe6cc;strokeColor=#d79b00;" parent="1" vertex="1">
          <mxGeometry x="570" y="245" width="190" height="60" as="geometry" />
        </mxCell>
        <mxCell id="8eYh4b06xCEiU3wfwkCu-22" value="&lt;font style=&quot;font-size: 13px;&quot;&gt;cid&lt;/font&gt;" style="text;strokeColor=#6c8ebf;fillColor=none;align=left;verticalAlign=middle;spacingLeft=4;spacingRight=4;overflow=hidden;points=[[0,0.5],[1,0.5]];portConstraint=eastwest;rotatable=0;whiteSpace=wrap;html=1;" parent="8eYh4b06xCEiU3wfwkCu-21" vertex="1">
          <mxGeometry y="30" width="190" height="30" as="geometry" />
        </mxCell>
        <mxCell id="8eYh4b06xCEiU3wfwkCu-24" style="edgeStyle=orthogonalEdgeStyle;rounded=0;orthogonalLoop=1;jettySize=auto;html=1;entryX=0;entryY=0.5;entryDx=0;entryDy=0;" parent="1" source="8eYh4b06xCEiU3wfwkCu-3" target="8eYh4b06xCEiU3wfwkCu-8" edge="1">
          <mxGeometry relative="1" as="geometry" />
        </mxCell>
        <mxCell id="8eYh4b06xCEiU3wfwkCu-26" style="edgeStyle=orthogonalEdgeStyle;rounded=0;orthogonalLoop=1;jettySize=auto;html=1;entryX=0;entryY=0.5;entryDx=0;entryDy=0;" parent="1" source="8eYh4b06xCEiU3wfwkCu-4" target="8eYh4b06xCEiU3wfwkCu-10" edge="1">
          <mxGeometry relative="1" as="geometry" />
        </mxCell>
        <mxCell id="8eYh4b06xCEiU3wfwkCu-27" value="Transcational Record about&lt;div&gt;&amp;nbsp;sales and records&amp;nbsp;&lt;/div&gt;" style="text;html=1;align=center;verticalAlign=middle;resizable=0;points=[];autosize=1;strokeColor=none;fillColor=none;" parent="1" vertex="1">
          <mxGeometry x="-150" y="195" width="170" height="40" as="geometry" />
        </mxCell>
        <mxCell id="8eYh4b06xCEiU3wfwkCu-28" value="current &amp;amp; history&amp;nbsp;&lt;div&gt;product information&lt;/div&gt;" style="text;html=1;align=center;verticalAlign=middle;resizable=0;points=[];autosize=1;strokeColor=none;fillColor=none;" parent="1" vertex="1">
          <mxGeometry x="180" y="290" width="130" height="40" as="geometry" />
        </mxCell>
        <mxCell id="8eYh4b06xCEiU3wfwkCu-29" value="customer information" style="text;html=1;align=center;verticalAlign=middle;resizable=0;points=[];autosize=1;strokeColor=none;fillColor=none;" parent="1" vertex="1">
          <mxGeometry x="175" y="120" width="140" height="30" as="geometry" />
        </mxCell>
        <mxCell id="8eYh4b06xCEiU3wfwkCu-32" style="edgeStyle=orthogonalEdgeStyle;rounded=0;orthogonalLoop=1;jettySize=auto;html=1;" parent="1" source="8eYh4b06xCEiU3wfwkCu-19" target="8eYh4b06xCEiU3wfwkCu-30" edge="1">
          <mxGeometry relative="1" as="geometry" />
        </mxCell>
        <mxCell id="8eYh4b06xCEiU3wfwkCu-33" value="extra customer information(Birthdate)" style="text;html=1;align=center;verticalAlign=middle;resizable=0;points=[];autosize=1;strokeColor=default;fillColor=none;" parent="1" vertex="1">
          <mxGeometry x="560" y="90" width="220" height="30" as="geometry" />
        </mxCell>
        <mxCell id="8eYh4b06xCEiU3wfwkCu-34" style="edgeStyle=orthogonalEdgeStyle;rounded=0;orthogonalLoop=1;jettySize=auto;html=1;entryX=1;entryY=0.5;entryDx=0;entryDy=0;" parent="1" source="8eYh4b06xCEiU3wfwkCu-22" target="8eYh4b06xCEiU3wfwkCu-30" edge="1">
          <mxGeometry relative="1" as="geometry" />
        </mxCell>
        <mxCell id="8eYh4b06xCEiU3wfwkCu-35" value="Location of customer(country)" style="text;html=1;align=center;verticalAlign=middle;resizable=0;points=[];autosize=1;strokeColor=none;fillColor=none;" parent="1" vertex="1">
          <mxGeometry x="570" y="215" width="180" height="30" as="geometry" />
        </mxCell>
        <mxCell id="8eYh4b06xCEiU3wfwkCu-36" value="erp_px_cat_a1v2" style="swimlane;fontStyle=0;childLayout=stackLayout;horizontal=1;startSize=30;horizontalStack=0;resizeParent=1;resizeParentMax=0;resizeLast=0;collapsible=1;marginBottom=0;whiteSpace=wrap;html=1;fillColor=#ffe6cc;strokeColor=#d79b00;" parent="1" vertex="1">
          <mxGeometry x="575" y="370" width="190" height="60" as="geometry" />
        </mxCell>
        <mxCell id="8eYh4b06xCEiU3wfwkCu-37" value="&lt;span style=&quot;font-size: 13px;&quot;&gt;id&lt;/span&gt;" style="text;strokeColor=#6c8ebf;fillColor=none;align=left;verticalAlign=middle;spacingLeft=4;spacingRight=4;overflow=hidden;points=[[0,0.5],[1,0.5]];portConstraint=eastwest;rotatable=0;whiteSpace=wrap;html=1;" parent="8eYh4b06xCEiU3wfwkCu-36" vertex="1">
          <mxGeometry y="30" width="190" height="30" as="geometry" />
        </mxCell>
        <mxCell id="8eYh4b06xCEiU3wfwkCu-38" style="edgeStyle=orthogonalEdgeStyle;rounded=0;orthogonalLoop=1;jettySize=auto;html=1;entryX=1;entryY=0.5;entryDx=0;entryDy=0;" parent="1" source="8eYh4b06xCEiU3wfwkCu-37" target="8eYh4b06xCEiU3wfwkCu-10" edge="1">
          <mxGeometry relative="1" as="geometry" />
        </mxCell>
        <mxCell id="8eYh4b06xCEiU3wfwkCu-39" value="Product Categories" style="text;html=1;align=center;verticalAlign=middle;resizable=0;points=[];autosize=1;strokeColor=none;fillColor=none;" parent="1" vertex="1">
          <mxGeometry x="600" y="340" width="130" height="30" as="geometry" />
        </mxCell>
        <mxCell id="8eYh4b06xCEiU3wfwkCu-40" value="" style="rounded=0;whiteSpace=wrap;html=1;fillColor=none;strokeColor=#56517e;dashed=1;dashPattern=8 8;fontStyle=0" parent="1" vertex="1">
          <mxGeometry x="-190" y="82" width="570" height="388" as="geometry" />
        </mxCell>
        <mxCell id="8eYh4b06xCEiU3wfwkCu-41" value="CRM" style="rounded=1;whiteSpace=wrap;html=1;fillColor=#b1ddf0;strokeColor=#10739e;" parent="1" vertex="1">
          <mxGeometry x="-10" y="70" width="160" height="30" as="geometry" />
        </mxCell>
        <mxCell id="8eYh4b06xCEiU3wfwkCu-43" value="" style="rounded=0;whiteSpace=wrap;html=1;fillColor=none;dashed=1;" parent="1" vertex="1">
          <mxGeometry x="425" y="60" width="390" height="410" as="geometry" />
        </mxCell>
        <mxCell id="8eYh4b06xCEiU3wfwkCu-45" value="ERP" style="rounded=1;whiteSpace=wrap;html=1;fillColor=#ffe6cc;strokeColor=#d79b00;" parent="1" vertex="1">
          <mxGeometry x="575" y="40" width="110" height="30" as="geometry" />
        </mxCell>
        <mxCell id="wf6IZ4Ln4RGI2DzaflBy-2" value="SALES" style="rounded=0;whiteSpace=wrap;html=1;align=center;fillColor=#f5f5f5;fontColor=#333333;strokeColor=#666666;" vertex="1" parent="1">
          <mxGeometry x="-150" y="320" width="170" height="30" as="geometry" />
        </mxCell>
        <mxCell id="wf6IZ4Ln4RGI2DzaflBy-4" value="PRODUCT" style="rounded=0;whiteSpace=wrap;html=1;fillColor=#ffe6cc;strokeColor=#d79b00;" vertex="1" parent="1">
          <mxGeometry x="160" y="390" width="190" height="30" as="geometry" />
        </mxCell>
        <mxCell id="wf6IZ4Ln4RGI2DzaflBy-5" value="CUSTOMER" style="rounded=0;whiteSpace=wrap;html=1;fillColor=#d5e8d4;strokeColor=#82b366;" vertex="1" parent="1">
          <mxGeometry x="160" y="240" width="190" height="30" as="geometry" />
        </mxCell>
        <mxCell id="wf6IZ4Ln4RGI2DzaflBy-6" value="CUSTOMER" style="rounded=0;whiteSpace=wrap;html=1;fillColor=#d5e8d4;strokeColor=#82b366;" vertex="1" parent="1">
          <mxGeometry x="570" y="182" width="190" height="20" as="geometry" />
        </mxCell>
        <mxCell id="wf6IZ4Ln4RGI2DzaflBy-9" value="CUSTOMER" style="rounded=0;whiteSpace=wrap;html=1;fillColor=#d5e8d4;strokeColor=#82b366;" vertex="1" parent="1">
          <mxGeometry x="570" y="305" width="190" height="20" as="geometry" />
        </mxCell>
        <mxCell id="wf6IZ4Ln4RGI2DzaflBy-10" value="PRODUCT" style="rounded=0;whiteSpace=wrap;html=1;fillColor=#fff2cc;strokeColor=#d6b656;" vertex="1" parent="1">
          <mxGeometry x="575" y="430" width="190" height="20" as="geometry" />
        </mxCell>
      </root>
    </mxGraphModel>
  </diagram>
</mxfile>
